<svg width="32" height="32" viewBox="0 0 32 32" fill="none" xmlns="http://www.w3.org/2000/svg">
<path d="M1.14286 8.25H30.8571C31.4884 8.25 32 7.80231 32 7.25V4.75C32 4.19769 31.4884 3.75 30.8571 3.75H1.14286C0.511643 3.75 0 4.19769 0 4.75V7.25C0 7.80231 0.511643 8.25 1.14286 8.25ZM1.14286 18.25H30.8571C31.4884 18.25 32 17.8023 32 17.25V14.75C32 14.1977 31.4884 13.75 30.8571 13.75H1.14286C0.511643 13.75 0 14.1977 0 14.75V17.25C0 17.8023 0.511643 18.25 1.14286 18.25ZM1.14286 28.25H30.8571C31.4884 28.25 32 27.8023 32 27.25V24.75C32 24.1977 31.4884 23.75 30.8571 23.75H1.14286C0.511643 23.75 0 24.1977 0 24.75V27.25C0 27.8023 0.511643 28.25 1.14286 28.25Z" fill="white"/>
</svg>
