<svg width="21" height="21" viewBox="0 0 21 21" fill="none" xmlns="http://www.w3.org/2000/svg">
<path d="M19.5 8.53125H12.75V2.625C12.75 1.90025 12.0783 1.3125 11.25 1.3125H9.75C8.92172 1.3125 8.25 1.90025 8.25 2.625V8.53125H1.5C0.671719 8.53125 0 9.119 0 9.84375V11.1562C0 11.881 0.671719 12.4688 1.5 12.4688H8.25V18.375C8.25 19.0997 8.92172 19.6875 9.75 19.6875H11.25C12.0783 19.6875 12.75 19.0997 12.75 18.375V12.4688H19.5C20.3283 12.4688 21 11.881 21 11.1562V9.84375C21 9.119 20.3283 8.53125 19.5 8.53125Z" fill="white"/>
</svg>
