<svg width="32" height="32" viewBox="0 0 32 32" fill="none" xmlns="http://www.w3.org/2000/svg">
<path d="M31.0625 17.0625L20.5625 27.5625C19.625 28.5 18 27.8437 18 26.5V20.5H9.5C8.66875 20.5 8 19.8312 8 19V13C8 12.1687 8.66875 11.5 9.5 11.5H18V5.49999C18 4.16249 19.6188 3.49999 20.5625 4.43749L31.0625 14.9375C31.6438 15.525 31.6438 16.475 31.0625 17.0625ZM12 27.25V24.75C12 24.3375 11.6625 24 11.25 24H6C4.89375 24 4 23.1062 4 22V9.99998C4 8.89373 4.89375 7.99999 6 7.99999H11.25C11.6625 7.99999 12 7.66249 12 7.24999V4.74999C12 4.33749 11.6625 3.99999 11.25 3.99999H6C2.6875 3.99999 0 6.68749 0 9.99998V22C0 25.3125 2.6875 28 6 28H11.25C11.6625 28 12 27.6625 12 27.25Z" fill="white"/>
</svg>
